PathFileType	4	(X/Y/Z)	/home/abdul/Desktop/myosuite/custom_workspace/IK/output/S5_12_2.trc
DataRate	CameraRate	NumFrames	NumMarkers	Units	OrigDataRate	OrigDataStartFrame	OrigNumFrames
200.0	200.0	57	3	mm	200.0	873	1396
Frame#	Time	V_Shoulder			V_Elbow			V_Wrist		
		X1	Y1	Z1	X2	Y2	Z2	X3	Y3	Z3

873	4.36	6.895933240143049	741.6702154968192	259.3100280420558	-143.9725082836889	547.2640031264762	67.08606187678677	-34.576277551209095	333.07135235862233	123.07022021640452
874	4.365	6.873944176501397	741.5662363497387	259.2732666216878	-143.74662247796348	547.1476418713332	66.80258313649702	-34.61800588462374	332.66179054203457	121.73357880337389
875	4.37	6.851208788429836	741.4658102697005	259.2361149761204	-143.51730715777597	547.0321085337496	66.52020096066842	-34.651492355384406	332.26985904589594	120.42224526696398
876	4.375	6.827752251200571	741.3689059080901	259.19859863186934	-143.28475916311345	546.917512782175	66.23902978884821	-34.67710839417623	331.8948654814689	119.13622980210668
877	4.38	6.8036000405858035	741.2754874947108	259.16074294127253	-143.04917234236365	546.8039569105238	65.95918082425672	-34.69522342213933	331.53611835718345	117.87551409350823
878	4.385	6.778777883208581	741.1855149560442	259.12257304877517	-142.81073736929923	546.6915358644922	65.68076169059125	-34.706203800001	331.192928718812	116.64005205067076
879	4.39	6.753311707269982	741.0989440408821	259.0841138578372	-142.56964157452856	546.5803372879061	65.40387610624717	-34.71041181078656	330.86461175014665	115.42977058935733
880	4.395	6.727227593808105	741.0157264531545	259.04538999854543	-142.32606879180838	546.4704415889927	65.12862357706518	-34.70820468030651	330.5504883292666	114.24457045597609
881	4.4	6.700551728639144	740.9358099917703	259.0064257960089	-142.08019921953456	546.3619220263838	64.85509910864229	-34.69993363941409	330.24988653572757	113.08432709129826
882	4.405	6.67331035512511	740.8591386972638	258.9672452396183	-141.83220929764974	546.2548448145808	64.5833929391683	-34.68594303180385	329.9621431042609	111.94889152987909
883	4.41	6.645529727906472	740.7856530050257	258.92787195324644	-141.58227160012865	546.1492692485283	64.3135902936696	-34.66656947087988	329.68660482084744	110.83809133152184
884	4.415	6.617236067731177	740.715289904877	258.8883291664642	-141.3305547431259	546.0452478468602	64.04577116045903	-34.64214104896294	329.42262985732054	109.75173154111133
885	4.42	6.588455517504318	740.6479831067281	258.848639686848	-141.07722330879528	545.9428265133072	63.78001009050373	-34.612976601830255	329.16958904095213	108.68959567314447
886	4.425	6.559214099675017	740.5836632120463	258.80882587344655	-140.82243778471673	545.8420447156755	63.516376020334064	-34.579385031291515	328.9268670557915	107.6514467173013
887	4.43	6.529537675069013	740.5222578908359	258.76890961147745	-140.5663545187946	545.7429356817336	63.25493211902451	-34.541664688201976	328.693863572846	106.63702816143076
888	4.435	6.499451903267158	740.4636920638221	258.7289122883174	-140.3091256894227	545.6455266112691	62.99573565968433	-34.500102817998645	328.4699943065242	105.6460650283688
889	4.44	6.46898220462121	740.4078880895067	258.6888547708482	-140.05089929064405	545.5498389035137	62.73883791580041	-34.454975070521606	328.25469199509797	104.67826492306273
890	4.445	6.438153723989543	740.3547659557489	258.64875738421625	-139.79181913197044	545.455888399066	62.48428408267881	-34.406545075550056	328.04740730327785	103.73331908654555
891	4.45	6.406991296266114	740.3042434755065	258.6086398920601	-139.53202485246536	545.3636856353817	62.232113224134665	-34.355064085144235	327.84760964534144	102.81090345338323
892	4.455	6.375519413766931	740.2562364863583	258.56852147825515	-139.27165194863775	545.2732361148433	61.98235824448318	-34.30077068354117	327.65478792759524	101.9106797093098
893	4.46	6.343762195528693	740.2106590534121	258.5284207302224	-139.01083181563962	545.1845405843683	61.73504588578784	-34.24389056500675	327.4684512092939	101.03229634586646
894	4.465	6.311743358565003	740.1674236751832	258.48835562384176	-138.74969180121053	545.0975953254676	61.49019675022576	-34.18463637969995	327.2881292814824	100.17538970897098
895	4.47	6.279486191115976	740.1264414920212	258.4483435100052	-138.48835527176686	545.0123924536219	61.24782534733536	-34.12320764725939	327.11337316356116	99.33958503846324
896	4.475	6.24701352791768	740.087622496642	258.4084011028431	-138.22694168999	544.9289202258014	61.007940165817686	-34.05979073748008	326.94375551770514	98.5244974957987
897	4.48	6.2143477275085095	740.0508757463145	258.36854446964713	-137.9655667032314	544.8471633549307	60.77054376947146	-33.99455891710979	326.77887098159295	97.72973317719612
898	4.485	6.181510651580325	740.0161095762347	258.32878902251326	-137.70434224201614	544.7671033300592	60.535632916752	-33.9276724614632	326.61833642021713	96.95489010968456
899	4.49	6.148523646373157	739.9832318136124	258.28914951171686	-137.44337662789943	544.6887187409876	60.30319870335754	-33.859278829228344	326.4617910978525	96.19955922764024
900	4.495	6.115407526103357	739.9521499919865	258.24964002083334	-137.1827746899023	544.6119856060751	60.07322672716196	-33.78951289852625	326.30889677155506	95.4633253275536
901	4.5	6.082182558406473	739.9227715652715	258.21027396360483	-136.92263788873294	544.5368777019439	59.84569727473247	-33.718497261983	326.1593377078468	94.74576799891935
902	4.505	6.048868451767812	739.8950041210373	258.1710640825535	-136.66306444798215	544.4633668937918	59.62058552859281	-33.64634257828402	326.0128206245127	94.04646252929933
903	4.51	6.01548434490554	739.8687555925097	258.13202244933365	-136.4041494914674	544.391423465022	59.39786179431894	-33.57314797740616	325.86907455969015	93.3649807817666
904	4.515	5.98204879806359	739.8439344687858	258.0931604668076	-136.14598518589167	544.3210164449056	59.17749174648384	-33.49900151646507	325.7278506706745	92.70089204309824
905	4.52	5.94857978616428	739.8204500027429	258.0544888728297	-135.8886608879775	544.2521139330026	58.95943669240252	-33.42398068287397	325.58892196508816	92.05376384124719
906	4.525	5.91509469376365	739.7982124161264	258.0160177457105	-135.6322632952342	544.1846834190833	58.74365385256643	-33.348152941287736	325.4520829672697	91.42316273078332
907	4.53	5.881610311746143	739.7771331012992	257.97775651133196	-135.37687659951968	544.1186920973144	58.53009665659931	-33.27157632060356	325.3171493229313	90.80865504515593
908	4.535	5.848142835689203	739.7571248191356	257.9397139518781	-135.1225826425623	544.0541071735015	58.31871505351381	-33.19430003710745	325.1839573453068	90.20980761478944
909	4.54	5.81470786582291	739.7381018925468	257.9018982161377	-134.86946107261863	543.9908961642118	58.10945583500012	-33.11636514969572	325.05236350616747	89.62618845018316
910	4.545	5.7813204085047145	739.7199803951331	257.8643168313327	-134.61758950145477	543.9290271866377	57.90226297043435	-33.03780524296258	324.922243875223	89.05736738934246
911	4.55	5.7479948791249145	739.7026783344545	257.8269767164202	-134.3670436608539	543.8684692381053	57.69707795225613	-32.95864713383067	324.7934935115403	88.50291670902337
912	4.555	5.7147451063545205	739.6861158294306	257.78988419680906	-134.1178975578718	543.8091924641809	57.493840150330605	-32.87891159731012	324.666025810718	87.96241169942411
913	4.56	5.6815843376437725	739.670215281385	257.753045020431	-133.87022362808318	543.7511684143756	57.2924871738814	-32.79861410690516	324.5397718116311	87.43543120210543
914	4.565	5.6485252458767015	739.6549015382597	257.7164643750959	-133.62409288608563	543.6943702845108	57.09295523955671	-32.717765585144726	324.414679466627	86.92155811106623
915	4.57	5.615579937084842	739.6401020515399	257.6801469070624	-133.37957507255368	543.6387731448626	56.895179544171285	-32.63637315969572	324.29071287909665	86.42037983704282
916	4.575	5.582759959121443	739.6257470254495	257.6440967407453	-133.13673879716478	543.5843541532713	56.699094640652405	-32.55444092052442	324.16785151237366	85.93148873523575
917	4.58	5.550076311196338	739.6117695579802	257.6083174994814	-132.89565167675005	543.5310927524661	56.50463481570793	-32.47197067360247	324.0460893739186	85.45448249680196
918	4.585	5.517539454171005	739.5981057733529	257.57281232726945	-132.65638046805398	543.4789708509331	56.311734467729266	-32.388962686709775	323.9254341787424	84.9889645045767
919	4.59	5.485159321513286	739.5846949455158	257.5375839113976	-132.4189911945233	543.4279729867208	56.12032848344125	-32.30541642296556	323.8059064959921	84.53454415361414
920	4.595	5.452945330811591	739.5714796123117	257.5026345058669	-132.18354926658017	543.378086473662	55.93035261181446	-32.22133125782202	323.6875388825837	84.09083713725244
921	4.6	5.420906395749529	739.5584056799715	257.4679659555197	-131.9501195948724	543.3293015295694	55.74174383376394	-32.13670717538028	323.5703750077082	83.65746569952373
922	4.605	5.389050938443277	739.5454225176059	257.43357972077564	-131.71876669603256	543.2816113860376	55.55444072617051	-32.051545440035895	323.45446877196383	83.23405885483595
923	4.61	5.357386902046042	739.5324830414071	257.39947690287954	-131.48955479051688	543.2350123795793	55.36838381877752	-31.965849239630337	323.3398834247819	82.82025257595791
924	4.615	5.325921763526412	739.5195437882879	257.36565826956075	-131.262547892136	543.1895040238971	55.183515942536616	-31.87962429647343	323.2266906837132	82.41568995143491
925	4.62	5.294662546530319	739.5065649787169	257.33212428100404	-131.03780988893095	543.1450890631903	54.99978256800111	-31.7928794428102	323.1149698590288	82.02002131365583
926	4.625	5.263615834239707	739.4935105685425	257.2988751160303	-130.81540461508922	543.1017735064711	54.817132132393986	-31.70562715753168	323.0048069869657	81.63290433887784
927	4.63	5.232787782144727	739.4803482896247	257.2659106983852	-130.59539591363944	543.0595666429651	54.63551635401056	-31.617884061172212	322.89629397481133	81.25400412059753
928	4.635	5.202184130650472	739.4670496791241	257.2332307230339	-130.37784768970477	543.0184810387475	54.45489053265177	-31.52967136649416	322.78952776087823	80.88299321773175
929	4.64	5.171810217443725	739.453590097337	257.2008346823589	-130.1628239541389	542.978532514861	54.275213834824235	-31.441015282233224	322.68460949226517	80.51955167914267
